<svg width="211" height="210" viewBox="0 0 211 210" fill="none" xmlns="http://www.w3.org/2000/svg">
<ellipse cx="105.5" cy="105" rx="105.5" ry="105" fill="#FFD0BC"/>
<path d="M38.472 109.76C38.824 109.824 39.256 109.888 39.768 109.952C40.28 109.984 40.76 110 41.208 110C42.296 110 43.288 109.84 44.184 109.52C45.112 109.2 45.896 108.704 46.536 108.032C47.208 107.36 47.72 106.496 48.072 105.44C48.456 104.352 48.648 103.056 48.648 101.552C48.648 98.672 47.976 96.512 46.632 95.072C45.288 93.6 43.496 92.864 41.256 92.864C40.808 92.864 40.344 92.88 39.864 92.912C39.416 92.944 38.952 92.992 38.472 93.056V109.76ZM41.16 116.768C40.616 116.768 39.992 116.752 39.288 116.72C38.584 116.688 37.848 116.624 37.08 116.528C36.344 116.432 35.592 116.304 34.824 116.144C34.088 116.016 33.4 115.824 32.76 115.568C31 114.896 30.12 113.728 30.12 112.064V89.648C30.12 88.976 30.296 88.464 30.648 88.112C31.032 87.728 31.544 87.424 32.184 87.2C33.56 86.752 35.016 86.464 36.552 86.336C38.088 86.176 39.464 86.096 40.68 86.096C43.176 86.096 45.432 86.4 47.448 87.008C49.496 87.616 51.24 88.56 52.68 89.84C54.152 91.088 55.288 92.672 56.088 94.592C56.888 96.512 57.288 98.784 57.288 101.408C57.288 103.968 56.904 106.208 56.136 108.128C55.368 110.016 54.264 111.616 52.824 112.928C51.416 114.208 49.72 115.168 47.736 115.808C45.752 116.448 43.56 116.768 41.16 116.768ZM62.0888 91.376C62.0888 90 62.4888 88.912 63.2888 88.112C64.0888 87.312 65.1768 86.912 66.5528 86.912H82.3928C82.6168 87.264 82.8088 87.728 82.9688 88.304C83.1608 88.88 83.2568 89.488 83.2568 90.128C83.2568 91.344 82.9848 92.208 82.4408 92.72C81.9288 93.232 81.2408 93.488 80.3768 93.488H70.2488V97.952H81.0488C81.2728 98.304 81.4648 98.768 81.6248 99.344C81.8168 99.888 81.9128 100.48 81.9128 101.12C81.9128 102.336 81.6568 103.2 81.1448 103.712C80.6328 104.224 79.9448 104.48 79.0808 104.48H70.2488V109.52H82.5848C82.8088 109.872 83.0008 110.336 83.1608 110.912C83.3528 111.488 83.4488 112.096 83.4488 112.736C83.4488 113.952 83.1768 114.832 82.6328 115.376C82.1208 115.888 81.4328 116.144 80.5688 116.144H66.5528C65.1768 116.144 64.0888 115.744 63.2888 114.944C62.4888 114.144 62.0888 113.056 62.0888 111.68V91.376ZM114.738 114.992C114.29 115.44 113.634 115.776 112.77 116C111.938 116.256 110.93 116.384 109.746 116.384C108.562 116.384 107.442 116.208 106.386 115.856C105.33 115.504 104.466 114.656 103.794 113.312L99.0416 103.616C98.5616 102.624 98.1296 101.696 97.7456 100.832C97.3616 99.936 96.9456 98.912 96.4976 97.76L96.2096 97.808C96.3376 99.536 96.4016 101.296 96.4016 103.088C96.4336 104.88 96.4496 106.64 96.4496 108.368V115.808C96.0976 115.904 95.5536 116 94.8176 116.096C94.1136 116.192 93.4096 116.24 92.7056 116.24C92.0016 116.24 91.3776 116.192 90.8336 116.096C90.2896 116 89.8416 115.808 89.4896 115.52C89.1376 115.232 88.8656 114.848 88.6736 114.368C88.4816 113.856 88.3856 113.2 88.3856 112.4V88.4C88.8336 87.76 89.5216 87.28 90.4496 86.96C91.3776 86.64 92.3696 86.48 93.4256 86.48C94.6096 86.48 95.7296 86.672 96.7856 87.056C97.8736 87.408 98.7376 88.24 99.3776 89.552L104.178 99.248C104.658 100.24 105.09 101.184 105.474 102.08C105.858 102.944 106.274 103.952 106.722 105.104L106.962 105.056C106.834 103.328 106.754 101.6 106.722 99.872C106.69 98.144 106.674 96.416 106.674 94.688V86.912C107.026 86.816 107.554 86.72 108.258 86.624C108.994 86.528 109.714 86.48 110.418 86.48C111.826 86.48 112.898 86.736 113.634 87.248C114.37 87.728 114.738 88.752 114.738 90.32V114.992ZM147.316 111.248C147.316 112.24 147.14 112.976 146.788 113.456C146.436 113.936 145.876 114.4 145.108 114.848C144.66 115.104 144.1 115.36 143.428 115.616C142.756 115.84 142.02 116.032 141.22 116.192C140.42 116.384 139.572 116.528 138.676 116.624C137.812 116.72 136.948 116.768 136.084 116.768C133.78 116.768 131.62 116.464 129.604 115.856C127.588 115.216 125.828 114.272 124.324 113.024C122.852 111.744 121.684 110.16 120.82 108.272C119.956 106.384 119.524 104.192 119.524 101.696C119.524 99.072 119.988 96.784 120.916 94.832C121.876 92.88 123.124 91.264 124.66 89.984C126.228 88.672 128.004 87.696 129.988 87.056C132.004 86.416 134.068 86.096 136.18 86.096C139.22 86.096 141.62 86.592 143.38 87.584C145.172 88.544 146.068 89.808 146.068 91.376C146.068 92.208 145.86 92.928 145.444 93.536C145.028 94.144 144.548 94.624 144.004 94.976C143.204 94.496 142.196 94.032 140.98 93.584C139.796 93.104 138.452 92.864 136.948 92.864C134.26 92.864 132.116 93.632 130.516 95.168C128.948 96.704 128.164 98.832 128.164 101.552C128.164 103.024 128.372 104.304 128.788 105.392C129.236 106.448 129.828 107.328 130.564 108.032C131.3 108.704 132.148 109.216 133.108 109.568C134.068 109.888 135.092 110.048 136.18 110.048C136.884 110.048 137.508 109.984 138.052 109.856C138.596 109.728 139.012 109.584 139.3 109.424V104.912H134.164C133.972 104.56 133.78 104.096 133.588 103.52C133.428 102.944 133.348 102.336 133.348 101.696C133.348 100.544 133.604 99.712 134.116 99.2C134.66 98.688 135.348 98.432 136.18 98.432H144.292C145.252 98.432 145.988 98.704 146.5 99.248C147.044 99.76 147.316 100.496 147.316 101.456V111.248ZM151.399 101.408C151.399 98.912 151.783 96.704 152.551 94.784C153.351 92.864 154.423 91.264 155.767 89.984C157.143 88.672 158.743 87.68 160.567 87.008C162.423 86.336 164.423 86 166.567 86C168.711 86 170.695 86.336 172.519 87.008C174.375 87.68 175.991 88.672 177.367 89.984C178.743 91.264 179.815 92.864 180.583 94.784C181.383 96.704 181.783 98.912 181.783 101.408C181.783 103.904 181.399 106.128 180.631 108.08C179.863 110 178.791 111.616 177.415 112.928C176.071 114.208 174.471 115.184 172.615 115.856C170.759 116.528 168.743 116.864 166.567 116.864C164.391 116.864 162.375 116.528 160.519 115.856C158.663 115.152 157.063 114.144 155.719 112.832C154.375 111.52 153.319 109.904 152.551 107.984C151.783 106.064 151.399 103.872 151.399 101.408ZM160.039 101.408C160.039 104.32 160.631 106.496 161.815 107.936C162.999 109.376 164.583 110.096 166.567 110.096C168.583 110.096 170.183 109.376 171.367 107.936C172.551 106.496 173.143 104.32 173.143 101.408C173.143 98.528 172.551 96.368 171.367 94.928C170.215 93.488 168.631 92.768 166.615 92.768C164.631 92.768 163.031 93.488 161.815 94.928C160.631 96.336 160.039 98.496 160.039 101.408Z" fill="white"/>
<path d="M38.472 112.76C38.824 112.824 39.256 112.888 39.768 112.952C40.28 112.984 40.76 113 41.208 113C42.296 113 43.288 112.84 44.184 112.52C45.112 112.2 45.896 111.704 46.536 111.032C47.208 110.36 47.72 109.496 48.072 108.44C48.456 107.352 48.648 106.056 48.648 104.552C48.648 101.672 47.976 99.512 46.632 98.072C45.288 96.6 43.496 95.864 41.256 95.864C40.808 95.864 40.344 95.88 39.864 95.912C39.416 95.944 38.952 95.992 38.472 96.056V112.76ZM41.16 119.768C40.616 119.768 39.992 119.752 39.288 119.72C38.584 119.688 37.848 119.624 37.08 119.528C36.344 119.432 35.592 119.304 34.824 119.144C34.088 119.016 33.4 118.824 32.76 118.568C31 117.896 30.12 116.728 30.12 115.064V92.648C30.12 91.976 30.296 91.464 30.648 91.112C31.032 90.728 31.544 90.424 32.184 90.2C33.56 89.752 35.016 89.464 36.552 89.336C38.088 89.176 39.464 89.096 40.68 89.096C43.176 89.096 45.432 89.4 47.448 90.008C49.496 90.616 51.24 91.56 52.68 92.84C54.152 94.088 55.288 95.672 56.088 97.592C56.888 99.512 57.288 101.784 57.288 104.408C57.288 106.968 56.904 109.208 56.136 111.128C55.368 113.016 54.264 114.616 52.824 115.928C51.416 117.208 49.72 118.168 47.736 118.808C45.752 119.448 43.56 119.768 41.16 119.768ZM62.0888 94.376C62.0888 93 62.4888 91.912 63.2888 91.112C64.0888 90.312 65.1768 89.912 66.5528 89.912H82.3928C82.6168 90.264 82.8088 90.728 82.9688 91.304C83.1608 91.88 83.2568 92.488 83.2568 93.128C83.2568 94.344 82.9848 95.208 82.4408 95.72C81.9288 96.232 81.2408 96.488 80.3768 96.488H70.2488V100.952H81.0488C81.2728 101.304 81.4648 101.768 81.6248 102.344C81.8168 102.888 81.9128 103.48 81.9128 104.12C81.9128 105.336 81.6568 106.2 81.1448 106.712C80.6328 107.224 79.9448 107.48 79.0808 107.48H70.2488V112.52H82.5848C82.8088 112.872 83.0008 113.336 83.1608 113.912C83.3528 114.488 83.4488 115.096 83.4488 115.736C83.4488 116.952 83.1768 117.832 82.6328 118.376C82.1208 118.888 81.4328 119.144 80.5688 119.144H66.5528C65.1768 119.144 64.0888 118.744 63.2888 117.944C62.4888 117.144 62.0888 116.056 62.0888 114.68V94.376ZM114.738 117.992C114.29 118.44 113.634 118.776 112.77 119C111.938 119.256 110.93 119.384 109.746 119.384C108.562 119.384 107.442 119.208 106.386 118.856C105.33 118.504 104.466 117.656 103.794 116.312L99.0416 106.616C98.5616 105.624 98.1296 104.696 97.7456 103.832C97.3616 102.936 96.9456 101.912 96.4976 100.76L96.2096 100.808C96.3376 102.536 96.4016 104.296 96.4016 106.088C96.4336 107.88 96.4496 109.64 96.4496 111.368V118.808C96.0976 118.904 95.5536 119 94.8176 119.096C94.1136 119.192 93.4096 119.24 92.7056 119.24C92.0016 119.24 91.3776 119.192 90.8336 119.096C90.2896 119 89.8416 118.808 89.4896 118.52C89.1376 118.232 88.8656 117.848 88.6736 117.368C88.4816 116.856 88.3856 116.2 88.3856 115.4V91.4C88.8336 90.76 89.5216 90.28 90.4496 89.96C91.3776 89.64 92.3696 89.48 93.4256 89.48C94.6096 89.48 95.7296 89.672 96.7856 90.056C97.8736 90.408 98.7376 91.24 99.3776 92.552L104.178 102.248C104.658 103.24 105.09 104.184 105.474 105.08C105.858 105.944 106.274 106.952 106.722 108.104L106.962 108.056C106.834 106.328 106.754 104.6 106.722 102.872C106.69 101.144 106.674 99.416 106.674 97.688V89.912C107.026 89.816 107.554 89.72 108.258 89.624C108.994 89.528 109.714 89.48 110.418 89.48C111.826 89.48 112.898 89.736 113.634 90.248C114.37 90.728 114.738 91.752 114.738 93.32V117.992ZM147.316 114.248C147.316 115.24 147.14 115.976 146.788 116.456C146.436 116.936 145.876 117.4 145.108 117.848C144.66 118.104 144.1 118.36 143.428 118.616C142.756 118.84 142.02 119.032 141.22 119.192C140.42 119.384 139.572 119.528 138.676 119.624C137.812 119.72 136.948 119.768 136.084 119.768C133.78 119.768 131.62 119.464 129.604 118.856C127.588 118.216 125.828 117.272 124.324 116.024C122.852 114.744 121.684 113.16 120.82 111.272C119.956 109.384 119.524 107.192 119.524 104.696C119.524 102.072 119.988 99.784 120.916 97.832C121.876 95.88 123.124 94.264 124.66 92.984C126.228 91.672 128.004 90.696 129.988 90.056C132.004 89.416 134.068 89.096 136.18 89.096C139.22 89.096 141.62 89.592 143.38 90.584C145.172 91.544 146.068 92.808 146.068 94.376C146.068 95.208 145.86 95.928 145.444 96.536C145.028 97.144 144.548 97.624 144.004 97.976C143.204 97.496 142.196 97.032 140.98 96.584C139.796 96.104 138.452 95.864 136.948 95.864C134.26 95.864 132.116 96.632 130.516 98.168C128.948 99.704 128.164 101.832 128.164 104.552C128.164 106.024 128.372 107.304 128.788 108.392C129.236 109.448 129.828 110.328 130.564 111.032C131.3 111.704 132.148 112.216 133.108 112.568C134.068 112.888 135.092 113.048 136.18 113.048C136.884 113.048 137.508 112.984 138.052 112.856C138.596 112.728 139.012 112.584 139.3 112.424V107.912H134.164C133.972 107.56 133.78 107.096 133.588 106.52C133.428 105.944 133.348 105.336 133.348 104.696C133.348 103.544 133.604 102.712 134.116 102.2C134.66 101.688 135.348 101.432 136.18 101.432H144.292C145.252 101.432 145.988 101.704 146.5 102.248C147.044 102.76 147.316 103.496 147.316 104.456V114.248ZM151.399 104.408C151.399 101.912 151.783 99.704 152.551 97.784C153.351 95.864 154.423 94.264 155.767 92.984C157.143 91.672 158.743 90.68 160.567 90.008C162.423 89.336 164.423 89 166.567 89C168.711 89 170.695 89.336 172.519 90.008C174.375 90.68 175.991 91.672 177.367 92.984C178.743 94.264 179.815 95.864 180.583 97.784C181.383 99.704 181.783 101.912 181.783 104.408C181.783 106.904 181.399 109.128 180.631 111.08C179.863 113 178.791 114.616 177.415 115.928C176.071 117.208 174.471 118.184 172.615 118.856C170.759 119.528 168.743 119.864 166.567 119.864C164.391 119.864 162.375 119.528 160.519 118.856C158.663 118.152 157.063 117.144 155.719 115.832C154.375 114.52 153.319 112.904 152.551 110.984C151.783 109.064 151.399 106.872 151.399 104.408ZM160.039 104.408C160.039 107.32 160.631 109.496 161.815 110.936C162.999 112.376 164.583 113.096 166.567 113.096C168.583 113.096 170.183 112.376 171.367 110.936C172.551 109.496 173.143 107.32 173.143 104.408C173.143 101.528 172.551 99.368 171.367 97.928C170.215 96.488 168.631 95.768 166.615 95.768C164.631 95.768 163.031 96.488 161.815 97.928C160.631 99.336 160.039 101.496 160.039 104.408Z" fill="#F2E483"/>
<path d="M38.472 115.76C38.824 115.824 39.256 115.888 39.768 115.952C40.28 115.984 40.76 116 41.208 116C42.296 116 43.288 115.84 44.184 115.52C45.112 115.2 45.896 114.704 46.536 114.032C47.208 113.36 47.72 112.496 48.072 111.44C48.456 110.352 48.648 109.056 48.648 107.552C48.648 104.672 47.976 102.512 46.632 101.072C45.288 99.6 43.496 98.864 41.256 98.864C40.808 98.864 40.344 98.88 39.864 98.912C39.416 98.944 38.952 98.992 38.472 99.056V115.76ZM41.16 122.768C40.616 122.768 39.992 122.752 39.288 122.72C38.584 122.688 37.848 122.624 37.08 122.528C36.344 122.432 35.592 122.304 34.824 122.144C34.088 122.016 33.4 121.824 32.76 121.568C31 120.896 30.12 119.728 30.12 118.064V95.648C30.12 94.976 30.296 94.464 30.648 94.112C31.032 93.728 31.544 93.424 32.184 93.2C33.56 92.752 35.016 92.464 36.552 92.336C38.088 92.176 39.464 92.096 40.68 92.096C43.176 92.096 45.432 92.4 47.448 93.008C49.496 93.616 51.24 94.56 52.68 95.84C54.152 97.088 55.288 98.672 56.088 100.592C56.888 102.512 57.288 104.784 57.288 107.408C57.288 109.968 56.904 112.208 56.136 114.128C55.368 116.016 54.264 117.616 52.824 118.928C51.416 120.208 49.72 121.168 47.736 121.808C45.752 122.448 43.56 122.768 41.16 122.768ZM62.0888 97.376C62.0888 96 62.4888 94.912 63.2888 94.112C64.0888 93.312 65.1768 92.912 66.5528 92.912H82.3928C82.6168 93.264 82.8088 93.728 82.9688 94.304C83.1608 94.88 83.2568 95.488 83.2568 96.128C83.2568 97.344 82.9848 98.208 82.4408 98.72C81.9288 99.232 81.2408 99.488 80.3768 99.488H70.2488V103.952H81.0488C81.2728 104.304 81.4648 104.768 81.6248 105.344C81.8168 105.888 81.9128 106.48 81.9128 107.12C81.9128 108.336 81.6568 109.2 81.1448 109.712C80.6328 110.224 79.9448 110.48 79.0808 110.48H70.2488V115.52H82.5848C82.8088 115.872 83.0008 116.336 83.1608 116.912C83.3528 117.488 83.4488 118.096 83.4488 118.736C83.4488 119.952 83.1768 120.832 82.6328 121.376C82.1208 121.888 81.4328 122.144 80.5688 122.144H66.5528C65.1768 122.144 64.0888 121.744 63.2888 120.944C62.4888 120.144 62.0888 119.056 62.0888 117.68V97.376ZM114.738 120.992C114.29 121.44 113.634 121.776 112.77 122C111.938 122.256 110.93 122.384 109.746 122.384C108.562 122.384 107.442 122.208 106.386 121.856C105.33 121.504 104.466 120.656 103.794 119.312L99.0416 109.616C98.5616 108.624 98.1296 107.696 97.7456 106.832C97.3616 105.936 96.9456 104.912 96.4976 103.76L96.2096 103.808C96.3376 105.536 96.4016 107.296 96.4016 109.088C96.4336 110.88 96.4496 112.64 96.4496 114.368V121.808C96.0976 121.904 95.5536 122 94.8176 122.096C94.1136 122.192 93.4096 122.24 92.7056 122.24C92.0016 122.24 91.3776 122.192 90.8336 122.096C90.2896 122 89.8416 121.808 89.4896 121.52C89.1376 121.232 88.8656 120.848 88.6736 120.368C88.4816 119.856 88.3856 119.2 88.3856 118.4V94.4C88.8336 93.76 89.5216 93.28 90.4496 92.96C91.3776 92.64 92.3696 92.48 93.4256 92.48C94.6096 92.48 95.7296 92.672 96.7856 93.056C97.8736 93.408 98.7376 94.24 99.3776 95.552L104.178 105.248C104.658 106.24 105.09 107.184 105.474 108.08C105.858 108.944 106.274 109.952 106.722 111.104L106.962 111.056C106.834 109.328 106.754 107.6 106.722 105.872C106.69 104.144 106.674 102.416 106.674 100.688V92.912C107.026 92.816 107.554 92.72 108.258 92.624C108.994 92.528 109.714 92.48 110.418 92.48C111.826 92.48 112.898 92.736 113.634 93.248C114.37 93.728 114.738 94.752 114.738 96.32V120.992ZM147.316 117.248C147.316 118.24 147.14 118.976 146.788 119.456C146.436 119.936 145.876 120.4 145.108 120.848C144.66 121.104 144.1 121.36 143.428 121.616C142.756 121.84 142.02 122.032 141.22 122.192C140.42 122.384 139.572 122.528 138.676 122.624C137.812 122.72 136.948 122.768 136.084 122.768C133.78 122.768 131.62 122.464 129.604 121.856C127.588 121.216 125.828 120.272 124.324 119.024C122.852 117.744 121.684 116.16 120.82 114.272C119.956 112.384 119.524 110.192 119.524 107.696C119.524 105.072 119.988 102.784 120.916 100.832C121.876 98.88 123.124 97.264 124.66 95.984C126.228 94.672 128.004 93.696 129.988 93.056C132.004 92.416 134.068 92.096 136.18 92.096C139.22 92.096 141.62 92.592 143.38 93.584C145.172 94.544 146.068 95.808 146.068 97.376C146.068 98.208 145.86 98.928 145.444 99.536C145.028 100.144 144.548 100.624 144.004 100.976C143.204 100.496 142.196 100.032 140.98 99.584C139.796 99.104 138.452 98.864 136.948 98.864C134.26 98.864 132.116 99.632 130.516 101.168C128.948 102.704 128.164 104.832 128.164 107.552C128.164 109.024 128.372 110.304 128.788 111.392C129.236 112.448 129.828 113.328 130.564 114.032C131.3 114.704 132.148 115.216 133.108 115.568C134.068 115.888 135.092 116.048 136.18 116.048C136.884 116.048 137.508 115.984 138.052 115.856C138.596 115.728 139.012 115.584 139.3 115.424V110.912H134.164C133.972 110.56 133.78 110.096 133.588 109.52C133.428 108.944 133.348 108.336 133.348 107.696C133.348 106.544 133.604 105.712 134.116 105.2C134.66 104.688 135.348 104.432 136.18 104.432H144.292C145.252 104.432 145.988 104.704 146.5 105.248C147.044 105.76 147.316 106.496 147.316 107.456V117.248ZM151.399 107.408C151.399 104.912 151.783 102.704 152.551 100.784C153.351 98.864 154.423 97.264 155.767 95.984C157.143 94.672 158.743 93.68 160.567 93.008C162.423 92.336 164.423 92 166.567 92C168.711 92 170.695 92.336 172.519 93.008C174.375 93.68 175.991 94.672 177.367 95.984C178.743 97.264 179.815 98.864 180.583 100.784C181.383 102.704 181.783 104.912 181.783 107.408C181.783 109.904 181.399 112.128 180.631 114.08C179.863 116 178.791 117.616 177.415 118.928C176.071 120.208 174.471 121.184 172.615 121.856C170.759 122.528 168.743 122.864 166.567 122.864C164.391 122.864 162.375 122.528 160.519 121.856C158.663 121.152 157.063 120.144 155.719 118.832C154.375 117.52 153.319 115.904 152.551 113.984C151.783 112.064 151.399 109.872 151.399 107.408ZM160.039 107.408C160.039 110.32 160.631 112.496 161.815 113.936C162.999 115.376 164.583 116.096 166.567 116.096C168.583 116.096 170.183 115.376 171.367 113.936C172.551 112.496 173.143 110.32 173.143 107.408C173.143 104.528 172.551 102.368 171.367 100.928C170.215 99.488 168.631 98.768 166.615 98.768C164.631 98.768 163.031 99.488 161.815 100.928C160.631 102.336 160.039 104.496 160.039 107.408Z" fill="#D373AB"/>
<path d="M38.472 118.76C38.824 118.824 39.256 118.888 39.768 118.952C40.28 118.984 40.76 119 41.208 119C42.296 119 43.288 118.84 44.184 118.52C45.112 118.2 45.896 117.704 46.536 117.032C47.208 116.36 47.72 115.496 48.072 114.44C48.456 113.352 48.648 112.056 48.648 110.552C48.648 107.672 47.976 105.512 46.632 104.072C45.288 102.6 43.496 101.864 41.256 101.864C40.808 101.864 40.344 101.88 39.864 101.912C39.416 101.944 38.952 101.992 38.472 102.056V118.76ZM41.16 125.768C40.616 125.768 39.992 125.752 39.288 125.72C38.584 125.688 37.848 125.624 37.08 125.528C36.344 125.432 35.592 125.304 34.824 125.144C34.088 125.016 33.4 124.824 32.76 124.568C31 123.896 30.12 122.728 30.12 121.064V98.648C30.12 97.976 30.296 97.464 30.648 97.112C31.032 96.728 31.544 96.424 32.184 96.2C33.56 95.752 35.016 95.464 36.552 95.336C38.088 95.176 39.464 95.096 40.68 95.096C43.176 95.096 45.432 95.4 47.448 96.008C49.496 96.616 51.24 97.56 52.68 98.84C54.152 100.088 55.288 101.672 56.088 103.592C56.888 105.512 57.288 107.784 57.288 110.408C57.288 112.968 56.904 115.208 56.136 117.128C55.368 119.016 54.264 120.616 52.824 121.928C51.416 123.208 49.72 124.168 47.736 124.808C45.752 125.448 43.56 125.768 41.16 125.768ZM62.0888 100.376C62.0888 99 62.4888 97.912 63.2888 97.112C64.0888 96.312 65.1768 95.912 66.5528 95.912H82.3928C82.6168 96.264 82.8088 96.728 82.9688 97.304C83.1608 97.88 83.2568 98.488 83.2568 99.128C83.2568 100.344 82.9848 101.208 82.4408 101.72C81.9288 102.232 81.2408 102.488 80.3768 102.488H70.2488V106.952H81.0488C81.2728 107.304 81.4648 107.768 81.6248 108.344C81.8168 108.888 81.9128 109.48 81.9128 110.12C81.9128 111.336 81.6568 112.2 81.1448 112.712C80.6328 113.224 79.9448 113.48 79.0808 113.48H70.2488V118.52H82.5848C82.8088 118.872 83.0008 119.336 83.1608 119.912C83.3528 120.488 83.4488 121.096 83.4488 121.736C83.4488 122.952 83.1768 123.832 82.6328 124.376C82.1208 124.888 81.4328 125.144 80.5688 125.144H66.5528C65.1768 125.144 64.0888 124.744 63.2888 123.944C62.4888 123.144 62.0888 122.056 62.0888 120.68V100.376ZM114.738 123.992C114.29 124.44 113.634 124.776 112.77 125C111.938 125.256 110.93 125.384 109.746 125.384C108.562 125.384 107.442 125.208 106.386 124.856C105.33 124.504 104.466 123.656 103.794 122.312L99.0416 112.616C98.5616 111.624 98.1296 110.696 97.7456 109.832C97.3616 108.936 96.9456 107.912 96.4976 106.76L96.2096 106.808C96.3376 108.536 96.4016 110.296 96.4016 112.088C96.4336 113.88 96.4496 115.64 96.4496 117.368V124.808C96.0976 124.904 95.5536 125 94.8176 125.096C94.1136 125.192 93.4096 125.24 92.7056 125.24C92.0016 125.24 91.3776 125.192 90.8336 125.096C90.2896 125 89.8416 124.808 89.4896 124.52C89.1376 124.232 88.8656 123.848 88.6736 123.368C88.4816 122.856 88.3856 122.2 88.3856 121.4V97.4C88.8336 96.76 89.5216 96.28 90.4496 95.96C91.3776 95.64 92.3696 95.48 93.4256 95.48C94.6096 95.48 95.7296 95.672 96.7856 96.056C97.8736 96.408 98.7376 97.24 99.3776 98.552L104.178 108.248C104.658 109.24 105.09 110.184 105.474 111.08C105.858 111.944 106.274 112.952 106.722 114.104L106.962 114.056C106.834 112.328 106.754 110.6 106.722 108.872C106.69 107.144 106.674 105.416 106.674 103.688V95.912C107.026 95.816 107.554 95.72 108.258 95.624C108.994 95.528 109.714 95.48 110.418 95.48C111.826 95.48 112.898 95.736 113.634 96.248C114.37 96.728 114.738 97.752 114.738 99.32V123.992ZM147.316 120.248C147.316 121.24 147.14 121.976 146.788 122.456C146.436 122.936 145.876 123.4 145.108 123.848C144.66 124.104 144.1 124.36 143.428 124.616C142.756 124.84 142.02 125.032 141.22 125.192C140.42 125.384 139.572 125.528 138.676 125.624C137.812 125.72 136.948 125.768 136.084 125.768C133.78 125.768 131.62 125.464 129.604 124.856C127.588 124.216 125.828 123.272 124.324 122.024C122.852 120.744 121.684 119.16 120.82 117.272C119.956 115.384 119.524 113.192 119.524 110.696C119.524 108.072 119.988 105.784 120.916 103.832C121.876 101.88 123.124 100.264 124.66 98.984C126.228 97.672 128.004 96.696 129.988 96.056C132.004 95.416 134.068 95.096 136.18 95.096C139.22 95.096 141.62 95.592 143.38 96.584C145.172 97.544 146.068 98.808 146.068 100.376C146.068 101.208 145.86 101.928 145.444 102.536C145.028 103.144 144.548 103.624 144.004 103.976C143.204 103.496 142.196 103.032 140.98 102.584C139.796 102.104 138.452 101.864 136.948 101.864C134.26 101.864 132.116 102.632 130.516 104.168C128.948 105.704 128.164 107.832 128.164 110.552C128.164 112.024 128.372 113.304 128.788 114.392C129.236 115.448 129.828 116.328 130.564 117.032C131.3 117.704 132.148 118.216 133.108 118.568C134.068 118.888 135.092 119.048 136.18 119.048C136.884 119.048 137.508 118.984 138.052 118.856C138.596 118.728 139.012 118.584 139.3 118.424V113.912H134.164C133.972 113.56 133.78 113.096 133.588 112.52C133.428 111.944 133.348 111.336 133.348 110.696C133.348 109.544 133.604 108.712 134.116 108.2C134.66 107.688 135.348 107.432 136.18 107.432H144.292C145.252 107.432 145.988 107.704 146.5 108.248C147.044 108.76 147.316 109.496 147.316 110.456V120.248ZM151.399 110.408C151.399 107.912 151.783 105.704 152.551 103.784C153.351 101.864 154.423 100.264 155.767 98.984C157.143 97.672 158.743 96.68 160.567 96.008C162.423 95.336 164.423 95 166.567 95C168.711 95 170.695 95.336 172.519 96.008C174.375 96.68 175.991 97.672 177.367 98.984C178.743 100.264 179.815 101.864 180.583 103.784C181.383 105.704 181.783 107.912 181.783 110.408C181.783 112.904 181.399 115.128 180.631 117.08C179.863 119 178.791 120.616 177.415 121.928C176.071 123.208 174.471 124.184 172.615 124.856C170.759 125.528 168.743 125.864 166.567 125.864C164.391 125.864 162.375 125.528 160.519 124.856C158.663 124.152 157.063 123.144 155.719 121.832C154.375 120.52 153.319 118.904 152.551 116.984C151.783 115.064 151.399 112.872 151.399 110.408ZM160.039 110.408C160.039 113.32 160.631 115.496 161.815 116.936C162.999 118.376 164.583 119.096 166.567 119.096C168.583 119.096 170.183 118.376 171.367 116.936C172.551 115.496 173.143 113.32 173.143 110.408C173.143 107.528 172.551 105.368 171.367 103.928C170.215 102.488 168.631 101.768 166.615 101.768C164.631 101.768 163.031 102.488 161.815 103.928C160.631 105.336 160.039 107.496 160.039 110.408Z" fill="#8854FF"/>
</svg>
