<svg width="76" height="76" viewBox="0 0 76 76" fill="none" xmlns="http://www.w3.org/2000/svg">
<path d="M38.0086 18.5146C27.2252 18.5146 18.5274 27.2143 18.5274 38C18.5274 48.7857 27.2252 57.4854 38.0086 57.4854C48.7917 57.4854 57.4897 48.7857 57.4897 38C57.4897 27.2143 48.7917 18.5146 38.0086 18.5146ZM38.0086 50.6682C31.0401 50.6682 25.3432 44.987 25.3432 38C25.3432 31.0131 31.0231 25.3319 38.0086 25.3319C44.994 25.3319 50.6738 31.0131 50.6738 38C50.6738 44.987 44.9768 50.6682 38.0086 50.6682ZM62.8302 17.7175C62.8302 20.2444 60.7957 22.2624 58.2864 22.2624C55.7602 22.2624 53.7426 20.2274 53.7426 17.7175C53.7426 15.2076 55.7771 13.1726 58.2864 13.1726C60.7957 13.1726 62.8302 15.2076 62.8302 17.7175ZM75.733 22.3303C75.4449 16.2421 74.0544 10.8493 69.5952 6.40611C65.1531 1.96296 59.7614 0.572353 53.6748 0.267098C47.4015 -0.0890327 28.5985 -0.0890327 22.3253 0.267098C16.2554 0.555395 10.8638 1.946 6.40468 6.38915C1.94557 10.8323 0.572224 16.2251 0.267039 22.3133C-0.0890128 28.588 -0.0890128 47.3949 0.267039 53.6699C0.555269 59.7578 1.94557 65.1508 6.40468 69.5939C10.8638 74.0369 16.2385 75.4277 22.3253 75.733C28.5985 76.0889 47.4015 76.0889 53.6748 75.733C59.7614 75.4445 65.1531 74.0541 69.5952 69.5939C74.0375 65.1508 75.4277 59.7578 75.733 53.6699C76.0889 47.3949 76.0889 28.6049 75.733 22.3303ZM67.6284 60.4022C66.306 63.7263 63.7458 66.2869 60.4058 67.6268C55.404 69.6107 43.5358 69.1531 38.0086 69.1531C32.4812 69.1531 20.5959 69.5939 15.6112 67.6268C12.288 66.304 9.72783 63.7432 8.38838 60.4022C6.40468 55.3994 6.86247 43.5285 6.86247 38C6.86247 32.4715 6.42164 20.5835 8.38838 15.5977C9.71088 12.2738 12.2711 9.71303 15.6112 8.37332C20.6128 6.38915 32.4812 6.84704 38.0086 6.84704C43.5358 6.84704 55.4212 6.40611 60.4058 8.37332C63.729 9.69608 66.2892 12.2568 67.6284 15.5977C69.6124 20.6005 69.1544 32.4715 69.1544 38C69.1544 43.5285 69.6124 55.4166 67.6284 60.4022Z" fill="#FFD0BC"/>
</svg>
