<svg width="197" height="197" viewBox="0 0 197 197" fill="none" xmlns="http://www.w3.org/2000/svg">
<g filter="url(#filter0_d)">
<ellipse cx="94.5" cy="94.0256" rx="92.5" ry="92.0256" fill="#FFD0BE"/>
</g>
<g filter="url(#filter1_d)">
<path d="M27.472 99.76C27.824 99.824 28.256 99.888 28.768 99.952C29.28 99.984 29.76 100 30.208 100C31.296 100 32.288 99.84 33.184 99.52C34.112 99.2 34.896 98.704 35.536 98.032C36.208 97.36 36.72 96.496 37.072 95.44C37.456 94.352 37.648 93.056 37.648 91.552C37.648 88.672 36.976 86.512 35.632 85.072C34.288 83.6 32.496 82.864 30.256 82.864C29.808 82.864 29.344 82.88 28.864 82.912C28.416 82.944 27.952 82.992 27.472 83.056V99.76ZM30.16 106.768C29.616 106.768 28.992 106.752 28.288 106.72C27.584 106.688 26.848 106.624 26.08 106.528C25.344 106.432 24.592 106.304 23.824 106.144C23.088 106.016 22.4 105.824 21.76 105.568C20 104.896 19.12 103.728 19.12 102.064V79.648C19.12 78.976 19.296 78.464 19.648 78.112C20.032 77.728 20.544 77.424 21.184 77.2C22.56 76.752 24.016 76.464 25.552 76.336C27.088 76.176 28.464 76.096 29.68 76.096C32.176 76.096 34.432 76.4 36.448 77.008C38.496 77.616 40.24 78.56 41.68 79.84C43.152 81.088 44.288 82.672 45.088 84.592C45.888 86.512 46.288 88.784 46.288 91.408C46.288 93.968 45.904 96.208 45.136 98.128C44.368 100.016 43.264 101.616 41.824 102.928C40.416 104.208 38.72 105.168 36.736 105.808C34.752 106.448 32.56 106.768 30.16 106.768ZM51.0888 81.376C51.0888 80 51.4888 78.912 52.2888 78.112C53.0888 77.312 54.1768 76.912 55.5528 76.912H71.3928C71.6168 77.264 71.8088 77.728 71.9688 78.304C72.1608 78.88 72.2568 79.488 72.2568 80.128C72.2568 81.344 71.9848 82.208 71.4408 82.72C70.9288 83.232 70.2408 83.488 69.3768 83.488H59.2488V87.952H70.0488C70.2728 88.304 70.4648 88.768 70.6248 89.344C70.8168 89.888 70.9128 90.48 70.9128 91.12C70.9128 92.336 70.6568 93.2 70.1448 93.712C69.6328 94.224 68.9448 94.48 68.0808 94.48H59.2488V99.52H71.5848C71.8088 99.872 72.0008 100.336 72.1608 100.912C72.3528 101.488 72.4488 102.096 72.4488 102.736C72.4488 103.952 72.1768 104.832 71.6328 105.376C71.1208 105.888 70.4328 106.144 69.5688 106.144H55.5528C54.1768 106.144 53.0888 105.744 52.2888 104.944C51.4888 104.144 51.0888 103.056 51.0888 101.68V81.376ZM103.738 104.992C103.29 105.44 102.634 105.776 101.77 106C100.938 106.256 99.9296 106.384 98.7456 106.384C97.5616 106.384 96.4416 106.208 95.3856 105.856C94.3296 105.504 93.4656 104.656 92.7936 103.312L88.0416 93.616C87.5616 92.624 87.1296 91.696 86.7456 90.832C86.3616 89.936 85.9456 88.912 85.4976 87.76L85.2096 87.808C85.3376 89.536 85.4016 91.296 85.4016 93.088C85.4336 94.88 85.4496 96.64 85.4496 98.368V105.808C85.0976 105.904 84.5536 106 83.8176 106.096C83.1136 106.192 82.4096 106.24 81.7056 106.24C81.0016 106.24 80.3776 106.192 79.8336 106.096C79.2896 106 78.8416 105.808 78.4896 105.52C78.1376 105.232 77.8656 104.848 77.6736 104.368C77.4816 103.856 77.3856 103.2 77.3856 102.4V78.4C77.8336 77.76 78.5216 77.28 79.4496 76.96C80.3776 76.64 81.3696 76.48 82.4256 76.48C83.6096 76.48 84.7296 76.672 85.7856 77.056C86.8736 77.408 87.7376 78.24 88.3776 79.552L93.1776 89.248C93.6576 90.24 94.0896 91.184 94.4736 92.08C94.8576 92.944 95.2736 93.952 95.7216 95.104L95.9616 95.056C95.8336 93.328 95.7536 91.6 95.7216 89.872C95.6896 88.144 95.6736 86.416 95.6736 84.688V76.912C96.0256 76.816 96.5536 76.72 97.2576 76.624C97.9936 76.528 98.7136 76.48 99.4176 76.48C100.826 76.48 101.898 76.736 102.634 77.248C103.37 77.728 103.738 78.752 103.738 80.32V104.992ZM136.316 101.248C136.316 102.24 136.14 102.976 135.788 103.456C135.436 103.936 134.876 104.4 134.108 104.848C133.66 105.104 133.1 105.36 132.428 105.616C131.756 105.84 131.02 106.032 130.22 106.192C129.42 106.384 128.572 106.528 127.676 106.624C126.812 106.72 125.948 106.768 125.084 106.768C122.78 106.768 120.62 106.464 118.604 105.856C116.588 105.216 114.828 104.272 113.324 103.024C111.852 101.744 110.684 100.16 109.82 98.272C108.956 96.384 108.524 94.192 108.524 91.696C108.524 89.072 108.988 86.784 109.916 84.832C110.876 82.88 112.124 81.264 113.66 79.984C115.228 78.672 117.004 77.696 118.988 77.056C121.004 76.416 123.068 76.096 125.18 76.096C128.22 76.096 130.62 76.592 132.38 77.584C134.172 78.544 135.068 79.808 135.068 81.376C135.068 82.208 134.86 82.928 134.444 83.536C134.028 84.144 133.548 84.624 133.004 84.976C132.204 84.496 131.196 84.032 129.98 83.584C128.796 83.104 127.452 82.864 125.948 82.864C123.26 82.864 121.116 83.632 119.516 85.168C117.948 86.704 117.164 88.832 117.164 91.552C117.164 93.024 117.372 94.304 117.788 95.392C118.236 96.448 118.828 97.328 119.564 98.032C120.3 98.704 121.148 99.216 122.108 99.568C123.068 99.888 124.092 100.048 125.18 100.048C125.884 100.048 126.508 99.984 127.052 99.856C127.596 99.728 128.012 99.584 128.3 99.424V94.912H123.164C122.972 94.56 122.78 94.096 122.588 93.52C122.428 92.944 122.348 92.336 122.348 91.696C122.348 90.544 122.604 89.712 123.116 89.2C123.66 88.688 124.348 88.432 125.18 88.432H133.292C134.252 88.432 134.988 88.704 135.5 89.248C136.044 89.76 136.316 90.496 136.316 91.456V101.248ZM140.399 91.408C140.399 88.912 140.783 86.704 141.551 84.784C142.351 82.864 143.423 81.264 144.767 79.984C146.143 78.672 147.743 77.68 149.567 77.008C151.423 76.336 153.423 76 155.567 76C157.711 76 159.695 76.336 161.519 77.008C163.375 77.68 164.991 78.672 166.367 79.984C167.743 81.264 168.815 82.864 169.583 84.784C170.383 86.704 170.783 88.912 170.783 91.408C170.783 93.904 170.399 96.128 169.631 98.08C168.863 100 167.791 101.616 166.415 102.928C165.071 104.208 163.471 105.184 161.615 105.856C159.759 106.528 157.743 106.864 155.567 106.864C153.391 106.864 151.375 106.528 149.519 105.856C147.663 105.152 146.063 104.144 144.719 102.832C143.375 101.52 142.319 99.904 141.551 97.984C140.783 96.064 140.399 93.872 140.399 91.408ZM149.039 91.408C149.039 94.32 149.631 96.496 150.815 97.936C151.999 99.376 153.583 100.096 155.567 100.096C157.583 100.096 159.183 99.376 160.367 97.936C161.551 96.496 162.143 94.32 162.143 91.408C162.143 88.528 161.551 86.368 160.367 84.928C159.215 83.488 157.631 82.768 155.615 82.768C153.631 82.768 152.031 83.488 150.815 84.928C149.631 86.336 149.039 88.496 149.039 91.408Z" fill="white"/>
<path d="M27.472 101.76C27.824 101.824 28.256 101.888 28.768 101.952C29.28 101.984 29.76 102 30.208 102C31.296 102 32.288 101.84 33.184 101.52C34.112 101.2 34.896 100.704 35.536 100.032C36.208 99.36 36.72 98.496 37.072 97.44C37.456 96.352 37.648 95.056 37.648 93.552C37.648 90.672 36.976 88.512 35.632 87.072C34.288 85.6 32.496 84.864 30.256 84.864C29.808 84.864 29.344 84.88 28.864 84.912C28.416 84.944 27.952 84.992 27.472 85.056V101.76ZM30.16 108.768C29.616 108.768 28.992 108.752 28.288 108.72C27.584 108.688 26.848 108.624 26.08 108.528C25.344 108.432 24.592 108.304 23.824 108.144C23.088 108.016 22.4 107.824 21.76 107.568C20 106.896 19.12 105.728 19.12 104.064V81.648C19.12 80.976 19.296 80.464 19.648 80.112C20.032 79.728 20.544 79.424 21.184 79.2C22.56 78.752 24.016 78.464 25.552 78.336C27.088 78.176 28.464 78.096 29.68 78.096C32.176 78.096 34.432 78.4 36.448 79.008C38.496 79.616 40.24 80.56 41.68 81.84C43.152 83.088 44.288 84.672 45.088 86.592C45.888 88.512 46.288 90.784 46.288 93.408C46.288 95.968 45.904 98.208 45.136 100.128C44.368 102.016 43.264 103.616 41.824 104.928C40.416 106.208 38.72 107.168 36.736 107.808C34.752 108.448 32.56 108.768 30.16 108.768ZM51.0888 83.376C51.0888 82 51.4888 80.912 52.2888 80.112C53.0888 79.312 54.1768 78.912 55.5528 78.912H71.3928C71.6168 79.264 71.8088 79.728 71.9688 80.304C72.1608 80.88 72.2568 81.488 72.2568 82.128C72.2568 83.344 71.9848 84.208 71.4408 84.72C70.9288 85.232 70.2408 85.488 69.3768 85.488H59.2488V89.952H70.0488C70.2728 90.304 70.4648 90.768 70.6248 91.344C70.8168 91.888 70.9128 92.48 70.9128 93.12C70.9128 94.336 70.6568 95.2 70.1448 95.712C69.6328 96.224 68.9448 96.48 68.0808 96.48H59.2488V101.52H71.5848C71.8088 101.872 72.0008 102.336 72.1608 102.912C72.3528 103.488 72.4488 104.096 72.4488 104.736C72.4488 105.952 72.1768 106.832 71.6328 107.376C71.1208 107.888 70.4328 108.144 69.5688 108.144H55.5528C54.1768 108.144 53.0888 107.744 52.2888 106.944C51.4888 106.144 51.0888 105.056 51.0888 103.68V83.376ZM103.738 106.992C103.29 107.44 102.634 107.776 101.77 108C100.938 108.256 99.9296 108.384 98.7456 108.384C97.5616 108.384 96.4416 108.208 95.3856 107.856C94.3296 107.504 93.4656 106.656 92.7936 105.312L88.0416 95.616C87.5616 94.624 87.1296 93.696 86.7456 92.832C86.3616 91.936 85.9456 90.912 85.4976 89.76L85.2096 89.808C85.3376 91.536 85.4016 93.296 85.4016 95.088C85.4336 96.88 85.4496 98.64 85.4496 100.368V107.808C85.0976 107.904 84.5536 108 83.8176 108.096C83.1136 108.192 82.4096 108.24 81.7056 108.24C81.0016 108.24 80.3776 108.192 79.8336 108.096C79.2896 108 78.8416 107.808 78.4896 107.52C78.1376 107.232 77.8656 106.848 77.6736 106.368C77.4816 105.856 77.3856 105.2 77.3856 104.4V80.4C77.8336 79.76 78.5216 79.28 79.4496 78.96C80.3776 78.64 81.3696 78.48 82.4256 78.48C83.6096 78.48 84.7296 78.672 85.7856 79.056C86.8736 79.408 87.7376 80.24 88.3776 81.552L93.1776 91.248C93.6576 92.24 94.0896 93.184 94.4736 94.08C94.8576 94.944 95.2736 95.952 95.7216 97.104L95.9616 97.056C95.8336 95.328 95.7536 93.6 95.7216 91.872C95.6896 90.144 95.6736 88.416 95.6736 86.688V78.912C96.0256 78.816 96.5536 78.72 97.2576 78.624C97.9936 78.528 98.7136 78.48 99.4176 78.48C100.826 78.48 101.898 78.736 102.634 79.248C103.37 79.728 103.738 80.752 103.738 82.32V106.992ZM136.316 103.248C136.316 104.24 136.14 104.976 135.788 105.456C135.436 105.936 134.876 106.4 134.108 106.848C133.66 107.104 133.1 107.36 132.428 107.616C131.756 107.84 131.02 108.032 130.22 108.192C129.42 108.384 128.572 108.528 127.676 108.624C126.812 108.72 125.948 108.768 125.084 108.768C122.78 108.768 120.62 108.464 118.604 107.856C116.588 107.216 114.828 106.272 113.324 105.024C111.852 103.744 110.684 102.16 109.82 100.272C108.956 98.384 108.524 96.192 108.524 93.696C108.524 91.072 108.988 88.784 109.916 86.832C110.876 84.88 112.124 83.264 113.66 81.984C115.228 80.672 117.004 79.696 118.988 79.056C121.004 78.416 123.068 78.096 125.18 78.096C128.22 78.096 130.62 78.592 132.38 79.584C134.172 80.544 135.068 81.808 135.068 83.376C135.068 84.208 134.86 84.928 134.444 85.536C134.028 86.144 133.548 86.624 133.004 86.976C132.204 86.496 131.196 86.032 129.98 85.584C128.796 85.104 127.452 84.864 125.948 84.864C123.26 84.864 121.116 85.632 119.516 87.168C117.948 88.704 117.164 90.832 117.164 93.552C117.164 95.024 117.372 96.304 117.788 97.392C118.236 98.448 118.828 99.328 119.564 100.032C120.3 100.704 121.148 101.216 122.108 101.568C123.068 101.888 124.092 102.048 125.18 102.048C125.884 102.048 126.508 101.984 127.052 101.856C127.596 101.728 128.012 101.584 128.3 101.424V96.912H123.164C122.972 96.56 122.78 96.096 122.588 95.52C122.428 94.944 122.348 94.336 122.348 93.696C122.348 92.544 122.604 91.712 123.116 91.2C123.66 90.688 124.348 90.432 125.18 90.432H133.292C134.252 90.432 134.988 90.704 135.5 91.248C136.044 91.76 136.316 92.496 136.316 93.456V103.248ZM140.399 93.408C140.399 90.912 140.783 88.704 141.551 86.784C142.351 84.864 143.423 83.264 144.767 81.984C146.143 80.672 147.743 79.68 149.567 79.008C151.423 78.336 153.423 78 155.567 78C157.711 78 159.695 78.336 161.519 79.008C163.375 79.68 164.991 80.672 166.367 81.984C167.743 83.264 168.815 84.864 169.583 86.784C170.383 88.704 170.783 90.912 170.783 93.408C170.783 95.904 170.399 98.128 169.631 100.08C168.863 102 167.791 103.616 166.415 104.928C165.071 106.208 163.471 107.184 161.615 107.856C159.759 108.528 157.743 108.864 155.567 108.864C153.391 108.864 151.375 108.528 149.519 107.856C147.663 107.152 146.063 106.144 144.719 104.832C143.375 103.52 142.319 101.904 141.551 99.984C140.783 98.064 140.399 95.872 140.399 93.408ZM149.039 93.408C149.039 96.32 149.631 98.496 150.815 99.936C151.999 101.376 153.583 102.096 155.567 102.096C157.583 102.096 159.183 101.376 160.367 99.936C161.551 98.496 162.143 96.32 162.143 93.408C162.143 90.528 161.551 88.368 160.367 86.928C159.215 85.488 157.631 84.768 155.615 84.768C153.631 84.768 152.031 85.488 150.815 86.928C149.631 88.336 149.039 90.496 149.039 93.408Z" fill="#FFDE59"/>
<path d="M27.472 104.76C27.824 104.824 28.256 104.888 28.768 104.952C29.28 104.984 29.76 105 30.208 105C31.296 105 32.288 104.84 33.184 104.52C34.112 104.2 34.896 103.704 35.536 103.032C36.208 102.36 36.72 101.496 37.072 100.44C37.456 99.352 37.648 98.056 37.648 96.552C37.648 93.672 36.976 91.512 35.632 90.072C34.288 88.6 32.496 87.864 30.256 87.864C29.808 87.864 29.344 87.88 28.864 87.912C28.416 87.944 27.952 87.992 27.472 88.056V104.76ZM30.16 111.768C29.616 111.768 28.992 111.752 28.288 111.72C27.584 111.688 26.848 111.624 26.08 111.528C25.344 111.432 24.592 111.304 23.824 111.144C23.088 111.016 22.4 110.824 21.76 110.568C20 109.896 19.12 108.728 19.12 107.064V84.648C19.12 83.976 19.296 83.464 19.648 83.112C20.032 82.728 20.544 82.424 21.184 82.2C22.56 81.752 24.016 81.464 25.552 81.336C27.088 81.176 28.464 81.096 29.68 81.096C32.176 81.096 34.432 81.4 36.448 82.008C38.496 82.616 40.24 83.56 41.68 84.84C43.152 86.088 44.288 87.672 45.088 89.592C45.888 91.512 46.288 93.784 46.288 96.408C46.288 98.968 45.904 101.208 45.136 103.128C44.368 105.016 43.264 106.616 41.824 107.928C40.416 109.208 38.72 110.168 36.736 110.808C34.752 111.448 32.56 111.768 30.16 111.768ZM51.0888 86.376C51.0888 85 51.4888 83.912 52.2888 83.112C53.0888 82.312 54.1768 81.912 55.5528 81.912H71.3928C71.6168 82.264 71.8088 82.728 71.9688 83.304C72.1608 83.88 72.2568 84.488 72.2568 85.128C72.2568 86.344 71.9848 87.208 71.4408 87.72C70.9288 88.232 70.2408 88.488 69.3768 88.488H59.2488V92.952H70.0488C70.2728 93.304 70.4648 93.768 70.6248 94.344C70.8168 94.888 70.9128 95.48 70.9128 96.12C70.9128 97.336 70.6568 98.2 70.1448 98.712C69.6328 99.224 68.9448 99.48 68.0808 99.48H59.2488V104.52H71.5848C71.8088 104.872 72.0008 105.336 72.1608 105.912C72.3528 106.488 72.4488 107.096 72.4488 107.736C72.4488 108.952 72.1768 109.832 71.6328 110.376C71.1208 110.888 70.4328 111.144 69.5688 111.144H55.5528C54.1768 111.144 53.0888 110.744 52.2888 109.944C51.4888 109.144 51.0888 108.056 51.0888 106.68V86.376ZM103.738 109.992C103.29 110.44 102.634 110.776 101.77 111C100.938 111.256 99.9296 111.384 98.7456 111.384C97.5616 111.384 96.4416 111.208 95.3856 110.856C94.3296 110.504 93.4656 109.656 92.7936 108.312L88.0416 98.616C87.5616 97.624 87.1296 96.696 86.7456 95.832C86.3616 94.936 85.9456 93.912 85.4976 92.76L85.2096 92.808C85.3376 94.536 85.4016 96.296 85.4016 98.088C85.4336 99.88 85.4496 101.64 85.4496 103.368V110.808C85.0976 110.904 84.5536 111 83.8176 111.096C83.1136 111.192 82.4096 111.24 81.7056 111.24C81.0016 111.24 80.3776 111.192 79.8336 111.096C79.2896 111 78.8416 110.808 78.4896 110.52C78.1376 110.232 77.8656 109.848 77.6736 109.368C77.4816 108.856 77.3856 108.2 77.3856 107.4V83.4C77.8336 82.76 78.5216 82.28 79.4496 81.96C80.3776 81.64 81.3696 81.48 82.4256 81.48C83.6096 81.48 84.7296 81.672 85.7856 82.056C86.8736 82.408 87.7376 83.24 88.3776 84.552L93.1776 94.248C93.6576 95.24 94.0896 96.184 94.4736 97.08C94.8576 97.944 95.2736 98.952 95.7216 100.104L95.9616 100.056C95.8336 98.328 95.7536 96.6 95.7216 94.872C95.6896 93.144 95.6736 91.416 95.6736 89.688V81.912C96.0256 81.816 96.5536 81.72 97.2576 81.624C97.9936 81.528 98.7136 81.48 99.4176 81.48C100.826 81.48 101.898 81.736 102.634 82.248C103.37 82.728 103.738 83.752 103.738 85.32V109.992ZM136.316 106.248C136.316 107.24 136.14 107.976 135.788 108.456C135.436 108.936 134.876 109.4 134.108 109.848C133.66 110.104 133.1 110.36 132.428 110.616C131.756 110.84 131.02 111.032 130.22 111.192C129.42 111.384 128.572 111.528 127.676 111.624C126.812 111.72 125.948 111.768 125.084 111.768C122.78 111.768 120.62 111.464 118.604 110.856C116.588 110.216 114.828 109.272 113.324 108.024C111.852 106.744 110.684 105.16 109.82 103.272C108.956 101.384 108.524 99.192 108.524 96.696C108.524 94.072 108.988 91.784 109.916 89.832C110.876 87.88 112.124 86.264 113.66 84.984C115.228 83.672 117.004 82.696 118.988 82.056C121.004 81.416 123.068 81.096 125.18 81.096C128.22 81.096 130.62 81.592 132.38 82.584C134.172 83.544 135.068 84.808 135.068 86.376C135.068 87.208 134.86 87.928 134.444 88.536C134.028 89.144 133.548 89.624 133.004 89.976C132.204 89.496 131.196 89.032 129.98 88.584C128.796 88.104 127.452 87.864 125.948 87.864C123.26 87.864 121.116 88.632 119.516 90.168C117.948 91.704 117.164 93.832 117.164 96.552C117.164 98.024 117.372 99.304 117.788 100.392C118.236 101.448 118.828 102.328 119.564 103.032C120.3 103.704 121.148 104.216 122.108 104.568C123.068 104.888 124.092 105.048 125.18 105.048C125.884 105.048 126.508 104.984 127.052 104.856C127.596 104.728 128.012 104.584 128.3 104.424V99.912H123.164C122.972 99.56 122.78 99.096 122.588 98.52C122.428 97.944 122.348 97.336 122.348 96.696C122.348 95.544 122.604 94.712 123.116 94.2C123.66 93.688 124.348 93.432 125.18 93.432H133.292C134.252 93.432 134.988 93.704 135.5 94.248C136.044 94.76 136.316 95.496 136.316 96.456V106.248ZM140.399 96.408C140.399 93.912 140.783 91.704 141.551 89.784C142.351 87.864 143.423 86.264 144.767 84.984C146.143 83.672 147.743 82.68 149.567 82.008C151.423 81.336 153.423 81 155.567 81C157.711 81 159.695 81.336 161.519 82.008C163.375 82.68 164.991 83.672 166.367 84.984C167.743 86.264 168.815 87.864 169.583 89.784C170.383 91.704 170.783 93.912 170.783 96.408C170.783 98.904 170.399 101.128 169.631 103.08C168.863 105 167.791 106.616 166.415 107.928C165.071 109.208 163.471 110.184 161.615 110.856C159.759 111.528 157.743 111.864 155.567 111.864C153.391 111.864 151.375 111.528 149.519 110.856C147.663 110.152 146.063 109.144 144.719 107.832C143.375 106.52 142.319 104.904 141.551 102.984C140.783 101.064 140.399 98.872 140.399 96.408ZM149.039 96.408C149.039 99.32 149.631 101.496 150.815 102.936C151.999 104.376 153.583 105.096 155.567 105.096C157.583 105.096 159.183 104.376 160.367 102.936C161.551 101.496 162.143 99.32 162.143 96.408C162.143 93.528 161.551 91.368 160.367 89.928C159.215 88.488 157.631 87.768 155.615 87.768C153.631 87.768 152.031 88.488 150.815 89.928C149.631 91.336 149.039 93.496 149.039 96.408Z" fill="#FF65C3"/>
<path d="M27.472 106.76C27.824 106.824 28.256 106.888 28.768 106.952C29.28 106.984 29.76 107 30.208 107C31.296 107 32.288 106.84 33.184 106.52C34.112 106.2 34.896 105.704 35.536 105.032C36.208 104.36 36.72 103.496 37.072 102.44C37.456 101.352 37.648 100.056 37.648 98.552C37.648 95.672 36.976 93.512 35.632 92.072C34.288 90.6 32.496 89.864 30.256 89.864C29.808 89.864 29.344 89.88 28.864 89.912C28.416 89.944 27.952 89.992 27.472 90.056V106.76ZM30.16 113.768C29.616 113.768 28.992 113.752 28.288 113.72C27.584 113.688 26.848 113.624 26.08 113.528C25.344 113.432 24.592 113.304 23.824 113.144C23.088 113.016 22.4 112.824 21.76 112.568C20 111.896 19.12 110.728 19.12 109.064V86.648C19.12 85.976 19.296 85.464 19.648 85.112C20.032 84.728 20.544 84.424 21.184 84.2C22.56 83.752 24.016 83.464 25.552 83.336C27.088 83.176 28.464 83.096 29.68 83.096C32.176 83.096 34.432 83.4 36.448 84.008C38.496 84.616 40.24 85.56 41.68 86.84C43.152 88.088 44.288 89.672 45.088 91.592C45.888 93.512 46.288 95.784 46.288 98.408C46.288 100.968 45.904 103.208 45.136 105.128C44.368 107.016 43.264 108.616 41.824 109.928C40.416 111.208 38.72 112.168 36.736 112.808C34.752 113.448 32.56 113.768 30.16 113.768ZM51.0888 88.376C51.0888 87 51.4888 85.912 52.2888 85.112C53.0888 84.312 54.1768 83.912 55.5528 83.912H71.3928C71.6168 84.264 71.8088 84.728 71.9688 85.304C72.1608 85.88 72.2568 86.488 72.2568 87.128C72.2568 88.344 71.9848 89.208 71.4408 89.72C70.9288 90.232 70.2408 90.488 69.3768 90.488H59.2488V94.952H70.0488C70.2728 95.304 70.4648 95.768 70.6248 96.344C70.8168 96.888 70.9128 97.48 70.9128 98.12C70.9128 99.336 70.6568 100.2 70.1448 100.712C69.6328 101.224 68.9448 101.48 68.0808 101.48H59.2488V106.52H71.5848C71.8088 106.872 72.0008 107.336 72.1608 107.912C72.3528 108.488 72.4488 109.096 72.4488 109.736C72.4488 110.952 72.1768 111.832 71.6328 112.376C71.1208 112.888 70.4328 113.144 69.5688 113.144H55.5528C54.1768 113.144 53.0888 112.744 52.2888 111.944C51.4888 111.144 51.0888 110.056 51.0888 108.68V88.376ZM103.738 111.992C103.29 112.44 102.634 112.776 101.77 113C100.938 113.256 99.9296 113.384 98.7456 113.384C97.5616 113.384 96.4416 113.208 95.3856 112.856C94.3296 112.504 93.4656 111.656 92.7936 110.312L88.0416 100.616C87.5616 99.624 87.1296 98.696 86.7456 97.832C86.3616 96.936 85.9456 95.912 85.4976 94.76L85.2096 94.808C85.3376 96.536 85.4016 98.296 85.4016 100.088C85.4336 101.88 85.4496 103.64 85.4496 105.368V112.808C85.0976 112.904 84.5536 113 83.8176 113.096C83.1136 113.192 82.4096 113.24 81.7056 113.24C81.0016 113.24 80.3776 113.192 79.8336 113.096C79.2896 113 78.8416 112.808 78.4896 112.52C78.1376 112.232 77.8656 111.848 77.6736 111.368C77.4816 110.856 77.3856 110.2 77.3856 109.4V85.4C77.8336 84.76 78.5216 84.28 79.4496 83.96C80.3776 83.64 81.3696 83.48 82.4256 83.48C83.6096 83.48 84.7296 83.672 85.7856 84.056C86.8736 84.408 87.7376 85.24 88.3776 86.552L93.1776 96.248C93.6576 97.24 94.0896 98.184 94.4736 99.08C94.8576 99.944 95.2736 100.952 95.7216 102.104L95.9616 102.056C95.8336 100.328 95.7536 98.6 95.7216 96.872C95.6896 95.144 95.6736 93.416 95.6736 91.688V83.912C96.0256 83.816 96.5536 83.72 97.2576 83.624C97.9936 83.528 98.7136 83.48 99.4176 83.48C100.826 83.48 101.898 83.736 102.634 84.248C103.37 84.728 103.738 85.752 103.738 87.32V111.992ZM136.316 108.248C136.316 109.24 136.14 109.976 135.788 110.456C135.436 110.936 134.876 111.4 134.108 111.848C133.66 112.104 133.1 112.36 132.428 112.616C131.756 112.84 131.02 113.032 130.22 113.192C129.42 113.384 128.572 113.528 127.676 113.624C126.812 113.72 125.948 113.768 125.084 113.768C122.78 113.768 120.62 113.464 118.604 112.856C116.588 112.216 114.828 111.272 113.324 110.024C111.852 108.744 110.684 107.16 109.82 105.272C108.956 103.384 108.524 101.192 108.524 98.696C108.524 96.072 108.988 93.784 109.916 91.832C110.876 89.88 112.124 88.264 113.66 86.984C115.228 85.672 117.004 84.696 118.988 84.056C121.004 83.416 123.068 83.096 125.18 83.096C128.22 83.096 130.62 83.592 132.38 84.584C134.172 85.544 135.068 86.808 135.068 88.376C135.068 89.208 134.86 89.928 134.444 90.536C134.028 91.144 133.548 91.624 133.004 91.976C132.204 91.496 131.196 91.032 129.98 90.584C128.796 90.104 127.452 89.864 125.948 89.864C123.26 89.864 121.116 90.632 119.516 92.168C117.948 93.704 117.164 95.832 117.164 98.552C117.164 100.024 117.372 101.304 117.788 102.392C118.236 103.448 118.828 104.328 119.564 105.032C120.3 105.704 121.148 106.216 122.108 106.568C123.068 106.888 124.092 107.048 125.18 107.048C125.884 107.048 126.508 106.984 127.052 106.856C127.596 106.728 128.012 106.584 128.3 106.424V101.912H123.164C122.972 101.56 122.78 101.096 122.588 100.52C122.428 99.944 122.348 99.336 122.348 98.696C122.348 97.544 122.604 96.712 123.116 96.2C123.66 95.688 124.348 95.432 125.18 95.432H133.292C134.252 95.432 134.988 95.704 135.5 96.248C136.044 96.76 136.316 97.496 136.316 98.456V108.248ZM140.399 98.408C140.399 95.912 140.783 93.704 141.551 91.784C142.351 89.864 143.423 88.264 144.767 86.984C146.143 85.672 147.743 84.68 149.567 84.008C151.423 83.336 153.423 83 155.567 83C157.711 83 159.695 83.336 161.519 84.008C163.375 84.68 164.991 85.672 166.367 86.984C167.743 88.264 168.815 89.864 169.583 91.784C170.383 93.704 170.783 95.912 170.783 98.408C170.783 100.904 170.399 103.128 169.631 105.08C168.863 107 167.791 108.616 166.415 109.928C165.071 111.208 163.471 112.184 161.615 112.856C159.759 113.528 157.743 113.864 155.567 113.864C153.391 113.864 151.375 113.528 149.519 112.856C147.663 112.152 146.063 111.144 144.719 109.832C143.375 108.52 142.319 106.904 141.551 104.984C140.783 103.064 140.399 100.872 140.399 98.408ZM149.039 98.408C149.039 101.32 149.631 103.496 150.815 104.936C151.999 106.376 153.583 107.096 155.567 107.096C157.583 107.096 159.183 106.376 160.367 104.936C161.551 103.496 162.143 101.32 162.143 98.408C162.143 95.528 161.551 93.368 160.367 91.928C159.215 90.488 157.631 89.768 155.615 89.768C153.631 89.768 152.031 90.488 150.815 91.928C149.631 93.336 149.039 95.496 149.039 98.408Z" fill="#8C52FF"/>
</g>
<defs>
<filter id="filter0_d" x="0" y="0" width="197" height="196.051" filterUnits="userSpaceOnUse" color-interpolation-filters="sRGB">
<feFlood flood-opacity="0" result="BackgroundImageFix"/>
<feColorMatrix in="SourceAlpha" type="matrix" values="0 0 0 0 0 0 0 0 0 0 0 0 0 0 0 0 0 0 127 0"/>
<feOffset dx="4" dy="4"/>
<feGaussianBlur stdDeviation="3"/>
<feColorMatrix type="matrix" values="0 0 0 0 0.549019 0 0 0 0 0.321569 0 0 0 0 1 0 0 0 0.2 0"/>
<feBlend mode="normal" in2="BackgroundImageFix" result="effect1_dropShadow"/>
<feBlend mode="normal" in="SourceGraphic" in2="effect1_dropShadow" result="shape"/>
</filter>
<filter id="filter1_d" x="13.12" y="72" width="163.663" height="49.864" filterUnits="userSpaceOnUse" color-interpolation-filters="sRGB">
<feFlood flood-opacity="0" result="BackgroundImageFix"/>
<feColorMatrix in="SourceAlpha" type="matrix" values="0 0 0 0 0 0 0 0 0 0 0 0 0 0 0 0 0 0 127 0"/>
<feOffset dy="2"/>
<feGaussianBlur stdDeviation="3"/>
<feColorMatrix type="matrix" values="0 0 0 0 0.549019 0 0 0 0 0.321569 0 0 0 0 1 0 0 0 0.2 0"/>
<feBlend mode="normal" in2="BackgroundImageFix" result="effect1_dropShadow"/>
<feBlend mode="normal" in="SourceGraphic" in2="effect1_dropShadow" result="shape"/>
</filter>
</defs>
</svg>
