<svg width="68" height="76" viewBox="0 0 68 76" fill="none" xmlns="http://www.w3.org/2000/svg">
<path d="M3.32194 21.2098H18.7323C19.203 16.0043 20.656 11.3296 22.7435 7.71636C25.5063 2.93956 29.4356 0 33.8766 0C38.3175 0 42.2264 2.95998 45.0097 7.71636C47.0971 11.3092 48.5502 16.0043 49.0209 21.2098H64.4108C66.2322 21.2098 67.8694 22.7 67.7261 24.5168L64.6359 67.5283C64.247 72.9175 60.8498 76 55.9177 76H11.8355C6.3508 76 3.44473 72.1826 3.11729 67.5283L0.00656984 24.5372C-0.116222 22.7204 1.50053 21.2098 3.32194 21.2098ZM22.5798 21.2098H45.1325C44.6822 16.6984 43.4339 12.6973 41.6534 9.63524C39.6069 6.06285 36.8236 3.83777 33.8766 3.83777C30.9091 3.83777 28.1463 6.06285 26.0588 9.65565C24.2784 12.6973 23.0505 16.7188 22.5798 21.2098Z" fill="#FFD0BC"/>
<path d="M22.682 60.9144C21.9657 60.4244 21.7815 59.465 22.2727 58.7505C22.7639 58.036 23.7257 57.8523 24.442 58.3422C24.8922 58.6484 25.3629 58.9546 25.8746 59.2608C29.4765 61.4451 32.7918 62.527 35.5546 62.527C38.0514 62.527 40.0775 61.588 41.3668 59.6895C41.4486 59.5466 41.5305 59.465 41.551 59.4037C41.9193 58.8117 42.1854 58.1789 42.3696 57.5665C42.738 56.3009 42.6766 54.9944 42.1649 53.8104C41.6124 52.5652 40.5482 51.3608 38.8905 50.3605C37.7854 49.6868 36.4142 49.0948 34.7565 48.6457C30.5407 47.4618 27.4299 45.7878 25.7518 43.5423C23.9099 41.0723 23.7667 38.0919 25.7313 34.4787C27.0411 32.0903 29.7221 30.6001 33.1193 30.3347C36.0458 30.1102 39.5658 30.8042 43.1473 32.621C43.9249 33.0089 44.2319 33.9479 43.8226 34.7236C43.4133 35.4994 42.4924 35.8056 41.7147 35.3973C38.6654 33.8459 35.7593 33.2539 33.3444 33.4376C31.0318 33.6213 29.2718 34.5195 28.4941 35.9485C27.1844 38.3369 27.2048 40.2149 28.269 41.6439C29.4969 43.2974 32.0551 44.5834 35.616 45.5837C37.5398 46.1349 39.177 46.8289 40.5277 47.6455C42.7584 48.9928 44.2524 50.6871 45.0505 52.5243C45.8691 54.4228 45.9715 56.4233 45.4189 58.3831C45.1733 59.2608 44.7845 60.1386 44.2524 60.996C44.1296 61.1797 44.0477 61.3226 43.9863 61.4247C42.0831 64.2214 39.1565 65.6095 35.5956 65.6299C32.2597 65.6299 28.3713 64.4051 24.2783 61.9146C23.7667 61.6288 23.2346 61.3022 22.682 60.9144Z" fill="white"/>
</svg>
